<?xml version="1.0" standalone="no"?><!DOCTYPE svg PUBLIC "-//W3C//DTD SVG 1.1//EN" "http://www.w3.org/Graphics/SVG/1.1/DTD/svg11.dtd"><svg t="1773593792273" class="icon" viewBox="0 0 1024 1024" version="1.1" xmlns="http://www.w3.org/2000/svg" p-id="27355" xmlns:xlink="http://www.w3.org/1999/xlink" width="256" height="256"><path d="M977.92 444.871111a121.742222 121.742222 0 0 0-96.711111-56.888889H682.666667l5.688889-21.048889a471.608889 471.608889 0 0 0 25.031111-151.324444 436.337778 436.337778 0 0 0-7.395556-85.333333l-3.413333-14.222223a113.777778 113.777778 0 0 0-227.555556 26.168889v11.377778A284.444444 284.444444 0 0 1 227.555556 433.493333H56.888889a28.444444 28.444444 0 0 0-29.013333 29.013334V967.111111a28.444444 28.444444 0 0 0 29.013333 28.444445h739.555555a113.777778 113.777778 0 0 0 56.888889-18.204445 121.742222 121.742222 0 0 0 37.546667-38.684444 237.226667 237.226667 0 0 0 26.737778-63.146667c0-7.395556 64.853333-284.444444 72.817778-318.008889a166.115556 166.115556 0 0 0 7.395555-56.888889 123.448889 123.448889 0 0 0-19.911111-55.751111zM85.333333 492.088889h119.466667v446.577778H85.333333z m847.075556 48.924444c-4.551111 20.48-26.168889 113.777778-44.373333 195.128889-14.791111 64.853333-27.306667 120.604444-28.444445 124.017778a197.973333 197.973333 0 0 1-19.342222 44.373333 65.991111 65.991111 0 0 1-18.773333 20.48 56.888889 56.888889 0 0 1-27.306667 9.671111H261.688889v-455.111111a341.333333 341.333333 0 0 0 272.497778-324.266666 68.835556 68.835556 0 0 0 0-11.377778 56.888889 56.888889 0 0 1 56.888889-56.888889 56.888889 56.888889 0 0 1 56.888888 43.235556l3.413334 14.791111a403.342222 403.342222 0 0 1 6.257778 73.955555 411.306667 411.306667 0 0 1-22.186667 133.12l-9.671111 22.755556-19.342222 71.68h270.791111a64.284444 64.284444 0 0 1 50.631111 28.444444 72.817778 72.817778 0 0 1 9.102222 28.444445 131.413333 131.413333 0 0 1-4.551111 37.546666z" fill="#2c2c2c" p-id="27356"></path></svg>